<svg xmlns="http://www.w3.org/2000/svg" width="100" height="19" viewBox="0 0 100 19">
  <g id="Group_3" data-name="Group 3" transform="translate(-160 -3622)">
    <path id="ic_star_24px" d="M12,17.27,18.18,21l-1.64-7.03L22,9.24l-7.19-.61L12,2,9.19,8.63,2,9.24l5.46,4.73L5.82,21Z" transform="translate(158 3620)" fill="#ffd607"/>
    <path id="ic_star_24px-2" data-name="ic_star_24px" d="M12,17.27,18.18,21l-1.64-7.03L22,9.24l-7.19-.61L12,2,9.19,8.63,2,9.24l5.46,4.73L5.82,21Z" transform="translate(178 3620)" fill="#ffd607"/>
    <path id="ic_star_24px-3" data-name="ic_star_24px" d="M12,17.27,18.18,21l-1.64-7.03L22,9.24l-7.19-.61L12,2,9.19,8.63,2,9.24l5.46,4.73L5.82,21Z" transform="translate(198 3620)" fill="#ffd607"/>
    <path id="ic_star_24px-4" data-name="ic_star_24px" d="M12,17.27,18.18,21l-1.64-7.03L22,9.24l-7.19-.61L12,2,9.19,8.63,2,9.24l5.46,4.73L5.82,21Z" transform="translate(218 3620)" fill="#ffd607"/>
    <path id="ic_star_24px-5" data-name="ic_star_24px" d="M12,17.27,18.18,21l-1.64-7.03L22,9.24l-7.19-.61L12,2,9.19,8.63,2,9.24l5.46,4.73L5.82,21Z" transform="translate(238 3620)" fill="#ffd607"/>
  </g>
</svg>
